<svg xmlns="http://www.w3.org/2000/svg" xmlns:xlink="http://www.w3.org/1999/xlink" aria-hidden="true" role="img" class="iconify iconify--logos" width="35.93" height="32" preserveAspectRatio="xMidYMid meet" viewBox="0 0 256 228"><path fill="#00D8FF" d="M210.483 73.824a171.49 171.49 0 0 0-11.96-5.132c.465-1.6.893-3.154 1.273-4.66c3.002-11.837 4.24-22.454 3.574-31.156c-.073-.967-.215-1.913-.393-2.834c-2.226-11.537-8.646-19.456-18.04-22.732a31.22 31.22 0 0 0-3.736-.998c-9.376-1.968-22.834-1.968-38.753 1.28a169.12 169.12 0 0 0-10.472 2.51a155.866 155.866 0 0 0-6.694-4.66C100.524 1.536 85.557 0 73.183 0c-6.46 0-12.294.558-17.255 1.603C30.4 6.144 17.78 21.822 19.11 40.703a143.52 143.52 0 0 0 3.574 22.734a170.445 170.445 0 0 0-12.294 5.595C3.757 72.767 0 80.686 0 89.843c0 12.84 7.11 26.874 20.262 40.23a171.15 171.15 0 0 0 4.985 5.132a144.067 144.067 0 0 0-3.44 22.5c-1.33 18.88 11.29 34.559 36.818 38.815a78.928 78.928 0 0 0 9.466 1.14c12.375 0 27.342-1.536 43.148-4.708a155.866 155.866 0 0 0 6.694-4.66a169.12 169.12 0 0 0 10.472 2.51c15.919 3.248 29.377 3.248 38.753 1.28a31.22 31.22 0 0 0 3.736-.998c9.394-3.276 15.814-11.195 18.04-22.732c.178-.92.32-1.867.393-2.834c.666-8.702-.572-19.32-3.574-31.156a144.067 144.067 0 0 0-1.273-4.66a171.49 171.49 0 0 0 11.96-5.132c13.152-13.355 20.262-27.39 20.262-40.23c0-9.157-3.757-17.076-9.84-22.734Zm-6.739 30.988a145.52 145.52 0 0 1-9.84 6.552c-1.449 9.157-3.574 18.927-6.321 29.014c10.898 5.132 20.822 11.654 29.484 19.264c4.76-6.055 7.274-12.8 7.274-19.78c0-8.93-3.294-17.396-9.597-24.747a145.52 145.52 0 0 1-11-10.303ZM45.22 25.922c8.619-1.81 19.736-2.51 32.485-2.51c10.285 0 21.402.932 32.858 2.744a145.52 145.52 0 0 1 9.84-6.552c1.449-9.157 3.574-18.927 6.321-29.014c-10.898-5.132-20.822-11.654-29.484-19.264c-8.662-7.61-16.863-16.232-24.281-25.556c-7.418 9.324-15.619 17.946-24.28 25.556c-8.662 7.61-18.586 14.132-29.485 19.264c2.747 10.087 4.872 19.857 6.32 29.014c3.525 1.867 7.05 3.734 10.575 5.6c.186.066.372.133.558.199Zm-28.734 85.5c-4.76 6.055-7.274 12.8-7.274 19.78c0 8.93 3.294 17.396 9.597 24.747c3.525 1.867 7.05 3.734 10.575 5.6c1.449 9.157 3.574 18.927 6.321 29.014c-10.898 5.132-20.822 11.654-29.484 19.264c-8.662 7.61-16.863 16.232-24.281 25.556c7.418-9.324 15.619-17.946 24.28-25.556c8.662-7.61 18.586-14.132 29.485-19.264c-2.747-10.087-4.872-19.857-6.32-29.014a145.52 145.52 0 0 1-9.84-6.552c-6.303-7.351-9.597-15.817-9.597-24.747c0-6.98 2.514-13.725 7.274-19.78Zm18.14 73.797c-8.662 7.61-18.586 14.132-29.485 19.264c-2.747-10.087-4.872-19.857-6.32-29.014a145.52 145.52 0 0 1 9.84-6.552c1.449-9.157 3.574-18.927 6.321-29.014c10.898 5.132 20.822 11.654 29.484 19.264c8.662 7.61 16.863 16.232 24.281 25.556c-7.418 9.324-15.619 17.946-24.28 25.556Zm32.859 27.5c-10.285 0-21.402-.932-32.858-2.744a145.52 145.52 0 0 1-9.84 6.552c-1.449 9.157-3.574 18.927-6.321 29.014c10.898-5.132 20.822-11.654 29.484-19.264c8.662-7.61 16.863-16.232 24.281-25.556c7.418 9.324 15.619 17.946 24.28 25.556c8.662 7.61 18.586 14.132 29.485 19.264c-2.747-10.087-4.872-19.857-6.32-29.014a145.52 145.52 0 0 1-9.84-6.552c-11.456-1.812-22.573-2.744-32.858-2.744Zm50.256-45.136c-3.525-1.867-7.05-3.734-10.575-5.6c-1.449-9.157-3.574-18.927-6.321-29.014c10.898-5.132 20.822-11.654 29.484-19.264c8.662-7.61 16.863-16.232 24.281-25.556c7.418 9.324 15.619 17.946 24.28 25.556c8.662 7.61 18.586 14.132 29.485 19.264c-2.747 10.087-4.872 19.857-6.32 29.014a145.52 145.52 0 0 1-9.84 6.552c-8.619 1.81-19.736 2.51-32.485 2.51c-12.749 0-23.866-.7-32.485-2.51Zm18.14-98.33c-8.662-7.61-18.586-14.132-29.485-19.264c2.747-10.087 4.872-19.857 6.32-29.014a145.52 145.52 0 0 1 9.84-6.552c8.619 1.81 19.736 2.51 32.485 2.51c12.749 0 23.866-.7 32.485-2.51a145.52 145.52 0 0 1 9.84 6.552c1.449 9.157 3.574 18.927 6.321 29.014c-10.898 5.132-20.822 11.654-29.484 19.264c-8.662 7.61-16.863 16.232-24.281 25.556c-7.418-9.324-15.619-17.946-24.28-25.556Zm50.256 45.136c-3.525 1.867-7.05 3.734-10.575 5.6c-1.449 9.157-3.574 18.927-6.321 29.014c10.898 5.132 20.822 11.654 29.484 19.264c8.662 7.61 16.863 16.232 24.281 25.556c-7.418-9.324-15.619-17.946-24.28-25.556c-8.662-7.61-18.586-14.132-29.485-19.264c2.747-10.087 4.872-19.857 6.32-29.014a145.52 145.52 0 0 1 9.84-6.552c8.619-1.81 19.736-2.51 32.485-2.51c12.749 0 23.866.7 32.485 2.51Zm18.14 73.797c8.662-7.61 18.586-14.132 29.485-19.264c2.747 10.087 4.872 19.857 6.32 29.014a145.52 145.52 0 0 1-9.84 6.552c-8.619 1.81-19.736 2.51-32.485 2.51c-12.749 0-23.866-.7-32.485-2.51a145.52 145.52 0 0 1-9.84-6.552c-1.449-9.157-3.574-18.927-6.321-29.014c10.898-5.132 20.822-11.654 29.484-19.264c8.662-7.61 16.863-16.232 24.281-25.556c7.418 9.324 15.619 17.946 24.28 25.556Zm18.14-98.33c6.303 7.351 9.597 15.817 9.597 24.747c0 6.98-2.514 13.725-7.274 19.78a145.52 145.52 0 0 1-11 10.303c-3.525-1.867-7.05-3.734-10.575-5.6c-1.449-9.157-3.574-18.927-6.321-29.014c10.898-5.132 20.822-11.654 29.484-19.264c4.76-6.055 7.274-12.8 7.274-19.78c0-8.93-3.294-17.396-9.597-24.747Z"></path></svg>












